<?xml version="1.0" encoding="utf-8"?>
<!-- Generator: Adobe Illustrator 26.1.0, SVG Export Plug-In . SVG Version: 6.00 Build 0)  -->
<svg version="1.1" id="Layer_1" xmlns="http://www.w3.org/2000/svg" xmlns:xlink="http://www.w3.org/1999/xlink" x="0px" y="0px"
	 viewBox="0 0 100 100" style="enable-background:new 0 0 100 100;" xml:space="preserve">
<style type="text/css">
	.st0{fill:#DC3545;}
	.st1{fill:none;stroke:#FFFFFF;stroke-width:3;stroke-linecap:round;stroke-linejoin:round;stroke-miterlimit:10;}
</style>
<circle class="st0" cx="50" cy="50" r="50"/>
<g>
	<path class="st1" d="M58.76,74.88H41.24c-4.47,0-8.1-3.63-8.1-8.1v-26.8h33.72v26.8C66.86,71.25,63.23,74.88,58.76,74.88z"/>
	<path class="st1" d="M66.86,39.98H33.14c-2.29,0-4.14-1.85-4.14-4.14v0c0-2.29,1.85-4.14,4.14-4.14h33.72
		c2.29,0,4.14,1.85,4.14,4.14v0C71,38.12,69.15,39.98,66.86,39.98z"/>
	<path class="st1" d="M60.35,31.69h-20.7v-1.25c0-2.94,2.38-5.32,5.32-5.32h10.06c2.94,0,5.32,2.38,5.32,5.32V31.69z"/>
	<g>
		<line class="st1" x1="42.01" y1="47.37" x2="42.01" y2="67.48"/>
		<line class="st1" x1="50" y1="47.37" x2="50" y2="67.48"/>
		<line class="st1" x1="57.99" y1="47.37" x2="57.99" y2="67.48"/>
	</g>
</g>
</svg>
